<svg xmlns="http://www.w3.org/2000/svg" viewBox="0 0 512 512" role="img" aria-label="Thon 09">
  <rect width="512" height="512" rx="96" fill="#ffffff"/>
  <circle cx="256" cy="256" r="226" fill="#ffffff" stroke="#086a36" stroke-width="18"/>
  <circle cx="256" cy="256" r="205" fill="none" stroke="#f4b000" stroke-width="8"/>
  <path fill="#086a36" d="M138 268h236v78H138z"/>
  <path fill="#ffffff" d="M170 284h38v62h-38zm67 0h38v62h-38zm67 0h38v62h-38z"/>
  <path fill="#086a36" d="M118 274 256 166l138 108-27 35-111-86-111 86z"/>
  <path fill="#e10613" d="M204 112h118c-18 30 5 51-12 80H204z"/>
  <path fill="#f8d21c" d="m263 135 9 24h25l-20 15 8 24-22-14-21 14 8-24-20-15h25z"/>
  <text x="256" y="101" text-anchor="middle" font-family="Arial, sans-serif" font-size="42" font-weight="800" fill="#086a36">THON 09</text>
  <text x="256" y="418" text-anchor="middle" font-family="Arial, sans-serif" font-size="112" font-weight="800" fill="#e10613">09</text>
</svg>
